<?xml version="1.0" standalone="no"?>
<!DOCTYPE svg PUBLIC "-//W3C//DTD SVG 20010904//EN"
 "http://www.w3.org/TR/2001/REC-SVG-20010904/DTD/svg10.dtd">
<svg version="1.0" xmlns="http://www.w3.org/2000/svg"
 width="250.000000pt" height="250.000000pt" viewBox="0 0 250.000000 250.000000"
 preserveAspectRatio="xMidYMid meet">
<metadata>
Created by potrace 1.14, written by Peter Selinger 2001-2017
</metadata>
<g transform="translate(0.000000,250.000000) scale(0.100000,-0.100000)"
fill="#000000" stroke="none">
<path d="M1079 2234 c-361 -63 -657 -329 -767 -686 -26 -84 -34 -137 -37 -268
-9 -414 247 -786 644 -930 87 -32 116 -36 126 -19 9 13 9 945 0 959 -8 13 -42
13 -50 0 -4 -6 -7 -210 -7 -455 l-1 -444 -62 24 c-288 108 -508 365 -571 666
-23 110 -23 269 0 375 71 333 317 599 641 692 92 27 143 34 240 37 516 11 946
-421 929 -933 -5 -164 -25 -247 -94 -387 -103 -209 -297 -384 -501 -454 l-57
-19 0 445 c0 284 -3 448 -10 455 -5 5 -18 8 -28 6 -18 -3 -19 -24 -22 -468 -1
-256 0 -475 3 -488 7 -28 24 -28 106 -1 248 81 451 261 569 504 75 154 94 239
95 425 0 132 -3 168 -23 240 -92 336 -339 595 -662 694 -152 46 -310 57 -461
30z"/>
<path d="M1236 2013 c-13 -27 -23 -33 -48 -33 l-31 0 23 -25 c18 -19 21 -31
16 -56 -5 -27 -4 -30 12 -24 34 15 60 17 66 6 14 -22 33 -12 28 15 -3 17 2 32
17 48 24 25 19 36 -16 36 -17 0 -27 9 -36 33 l-14 32 -17 -32z"/>
<path d="M880 1920 c-10 -24 -19 -30 -41 -30 -34 0 -37 -10 -8 -28 17 -11 20
-19 14 -49 -6 -32 -4 -35 12 -28 23 10 52 11 79 2 18 -7 20 -4 16 23 -3 23 2
38 19 56 l22 24 -31 0 c-25 0 -35 6 -47 30 -9 17 -17 30 -19 30 -2 0 -9 -13
-16 -30z"/>
<path d="M1636 1922 c-13 -26 -23 -32 -48 -32 l-31 0 22 -24 c17 -18 22 -33
19 -56 -4 -25 -2 -30 11 -24 21 10 62 9 85 -1 16 -7 18 -5 12 22 -5 22 -2 34
13 47 24 22 19 36 -13 36 -15 0 -27 10 -38 32 l-15 33 -17 -33z"/>
<path d="M710 1678 c-24 -9 -27 -43 -4 -52 9 -3 258 -6 554 -6 510 0 540 1
549 18 25 47 28 47 -544 47 -294 0 -544 -3 -555 -7z"/>
<path d="M813 1558 c-55 -9 -88 -31 -107 -73 -32 -67 -20 -132 34 -183 99 -95
258 7 196 126 -23 45 -90 71 -117 46 -24 -21 -14 -41 26 -54 38 -13 51 -39 35
-70 -11 -20 -51 -27 -85 -14 -36 14 -51 74 -30 126 15 37 51 40 489 40 369 0
428 -2 455 -16 70 -37 42 -156 -38 -156 -33 0 -47 9 -55 36 -8 26 16 54 44 54
23 0 42 31 31 49 -21 33 -102 4 -125 -44 -20 -42 -20 -70 1 -105 22 -38 55
-54 108 -54 146 3 192 213 60 279 -38 18 -63 19 -460 20 -231 0 -439 -3 -462
-7z"/>
<path d="M999 1443 c-9 -10 -10 -19 -2 -31 9 -15 37 -17 244 -17 129 -1 242 1
252 3 20 5 24 47 5 55 -7 2 -120 5 -250 5 -200 1 -239 -2 -249 -15z"/>
<path d="M1310 1355 c-10 -12 -13 -120 -12 -463 0 -246 1 -455 1 -465 1 -14 8
-18 29 -15 l27 3 3 467 c2 451 2 468 -17 477 -14 8 -22 7 -31 -4z"/>
<path d="M1147 1346 c-8 -20 -8 -901 -1 -921 7 -18 50 -20 56 -3 2 7 4 220 4
473 l-1 460 -26 3 c-17 2 -29 -3 -32 -12z"/>
<path d="M1121 356 c-17 -20 -2 -46 28 -47 24 -1 176 0 212 1 22 0 33 29 18
46 -16 20 -242 20 -258 0z"/>
</g>
</svg>
